<svg width="65" height="73" viewBox="0 0 65 73" fill="none" xmlns="http://www.w3.org/2000/svg">
<path fill-rule="evenodd" clip-rule="evenodd" d="M40.3059 45.0985C40.4786 45.4994 40.8597 45.7711 41.2951 45.8035C41.3244 45.8057 41.3534 45.8067 41.3825 45.8067C41.7857 45.8067 42.1633 45.5989 42.3781 45.2527L45.2174 40.6773L50.4926 41.7576C50.9207 41.8449 51.3612 41.6877 51.6367 41.3492C51.9123 41.0107 51.9767 40.5469 51.8042 40.146L47.8865 31.0499C48.0063 30.9991 48.1289 30.9468 48.2581 30.8915C50.2784 30.0264 51.4604 27.9788 51.1996 25.7967C51.1512 25.3913 51.1059 25.0307 51.0653 24.707C50.9026 23.4084 50.8207 22.7565 50.9086 22.2585C50.9965 21.7604 51.2962 21.1758 51.8934 20.0113C52.0424 19.7208 52.2082 19.3975 52.3923 19.033C53.3839 17.0716 52.9733 14.7432 51.3707 13.2394C51.0732 12.9601 50.8066 12.713 50.5676 12.4909C49.6079 11.6009 49.1263 11.1541 48.8736 10.7161C48.6206 10.2781 48.4746 9.63768 48.1835 8.3618C48.1109 8.04363 48.03 7.68914 47.9368 7.29158C47.4356 5.15174 45.6244 3.63211 43.4301 3.51009C43.0226 3.48738 42.6596 3.46937 42.3337 3.45311C41.0264 3.38807 40.3703 3.3554 39.8951 3.1824C39.42 3.00941 38.8964 2.61273 37.8532 1.8223C37.5931 1.62513 37.3033 1.40569 36.9766 1.16107C35.217 -0.155829 32.8531 -0.155975 31.0935 1.16107C30.7668 1.40569 30.4769 1.62513 30.2169 1.8223C29.1737 2.61273 28.6501 3.00941 28.1749 3.1824C27.6997 3.3554 27.0435 3.38807 25.7364 3.45311C25.4103 3.46937 25.0475 3.48738 24.64 3.51009C22.4456 3.63211 20.6344 5.15189 20.1332 7.29158C20.0401 7.68914 19.9592 8.04349 19.8866 8.3618C19.5955 9.63768 19.4494 10.2783 19.1965 10.7161C18.9436 11.1541 18.462 11.6009 17.5025 12.4909C17.2633 12.713 16.9969 12.9601 16.6993 13.2394C15.097 14.7434 14.6862 17.0718 15.6776 19.0332C15.8617 19.3973 16.0276 19.7206 16.1764 20.011C16.7736 21.1757 17.0735 21.7603 17.1614 22.2583C17.2492 22.7562 17.1674 23.4081 17.0046 24.7065C16.964 25.0304 16.9188 25.3912 16.8703 25.7967C16.6096 27.9788 17.7915 30.0264 19.8118 30.8915C20.1871 31.0522 20.522 31.1934 20.8227 31.3201C20.9141 31.3587 21.0009 31.3953 21.0855 31.431L16.2798 41.7529C16.0955 42.1487 16.1467 42.6139 16.4121 42.9605C16.6777 43.307 17.1137 43.4776 17.544 43.4019L22.8486 42.4751L25.554 47.1308C25.7645 47.4928 26.151 47.7138 26.5671 47.7138C26.5847 47.7138 26.6026 47.7134 26.6203 47.7126C27.0565 47.6929 27.4454 47.4323 27.6297 47.0366L32.4123 36.7638C33.1796 36.5332 33.6447 36.4171 34.0353 36.4171C34.541 36.4171 35.1688 36.6107 36.4195 36.9967C36.5642 37.0414 36.7175 37.0887 36.8782 37.1379L40.3059 45.0985ZM44.8873 38.2172C44.4066 38.1189 43.9153 38.3305 43.6564 38.7473L41.5703 42.1092L39.5787 37.4848C40.9457 37.2951 42.1969 36.5291 42.9967 35.306C43.2201 34.9642 43.4172 34.659 43.5943 34.3847C44.3043 33.2852 44.6606 32.7334 45.048 32.4082C45.2219 32.2623 45.4403 32.1305 45.7365 31.9836L48.7632 39.0109L44.8873 38.2172ZM26.4515 44.012L24.4639 40.5913C24.2172 40.1669 23.7324 39.9415 23.249 40.0257L19.3516 40.7066L23.157 32.5333C23.497 32.8711 23.8482 33.4146 24.4747 34.3849C24.6518 34.6591 24.849 34.9644 25.0724 35.306C26.0612 36.8181 27.7388 37.6327 29.4732 37.5217L26.4515 44.012ZM34.0345 34.0721C33.237 34.0721 32.4392 34.3005 30.9592 34.7573C30.6511 34.8523 30.3083 34.9581 29.9225 35.0747C28.8067 35.4116 27.6723 34.9994 27.0338 34.0232C26.8131 33.6859 26.6184 33.3843 26.4436 33.1136C24.763 30.5111 24.5869 30.3635 21.7321 29.1604C21.4352 29.0353 21.1044 28.8958 20.7338 28.737C19.6617 28.2778 19.0583 27.2328 19.1968 26.0747C19.2447 25.6743 19.2893 25.3179 19.3295 24.9982C19.7149 21.9246 19.6749 21.6982 18.2612 18.9413C18.1141 18.6545 17.9505 18.3353 17.7687 17.9757C17.2425 16.9348 17.4521 15.7465 18.3026 14.9483C18.5966 14.6725 18.8597 14.4284 19.096 14.2092C21.3672 12.1023 21.4821 11.9032 22.1711 8.88314C22.2428 8.56878 22.3226 8.21883 22.4146 7.8261C22.6804 6.69056 23.6049 5.91492 24.7695 5.85018C25.172 5.82777 25.5304 5.80989 25.8524 5.79393C28.9465 5.63983 29.1627 5.56116 31.6318 3.69041C31.8887 3.49573 32.1748 3.27894 32.4975 3.03738C33.4314 2.33851 34.6378 2.33851 35.5717 3.03738C35.8944 3.27894 36.1804 3.49573 36.4374 3.69041C38.9065 5.56116 39.1227 5.63983 42.2168 5.79393C42.5386 5.80989 42.8972 5.82777 43.2997 5.85018C44.4643 5.91492 45.3886 6.69056 45.6546 7.8261C45.7466 8.21868 45.8264 8.56863 45.8981 8.88299C46.5871 11.9031 46.702 12.1023 48.9732 14.209C49.2095 14.4283 49.4726 14.6723 49.7666 14.9482C50.6171 15.7464 50.8264 16.9346 50.3004 17.9756C50.1186 18.3353 49.9548 18.6548 49.8076 18.9416C48.3942 21.6982 48.3542 21.9246 48.7397 24.9985C48.7797 25.3182 48.8245 25.6743 48.8723 26.0745C49.0107 27.2326 48.4074 28.2778 47.3352 28.7369C46.9646 28.8955 46.6339 29.035 46.3369 29.1602C43.4823 30.3633 43.3062 30.5111 41.6256 33.1134C41.4508 33.3843 41.2561 33.6857 41.0354 34.0232C40.3971 34.9992 39.2637 35.4122 38.1467 35.0747C37.7609 34.9581 37.4179 34.8522 37.11 34.7573C35.6297 34.3005 34.8319 34.0721 34.0345 34.0721ZM45.6649 18.8521C45.6649 12.439 40.4475 7.22171 34.0345 7.22171C27.6215 7.22171 22.4042 12.439 22.4042 18.8521C22.4042 25.2652 27.6215 30.4827 34.0345 30.4827C40.4474 30.4827 45.6649 25.2654 45.6649 18.8521ZM34.0343 28.1389C28.9137 28.1389 24.7478 23.9729 24.7478 18.8521C24.7478 13.7315 28.9137 9.56546 34.0343 9.56546C39.155 9.56546 43.321 13.7315 43.321 18.8521C43.3211 23.9729 39.155 28.1389 34.0343 28.1389ZM40.4705 16.089L32.4682 23.3513C32.2444 23.5544 31.9624 23.6554 31.6809 23.6554C31.3803 23.6554 31.0803 23.5404 30.8521 23.3121L27.5574 20.0174C27.0997 19.5598 27.0997 18.8179 27.5574 18.3602C28.0151 17.9026 28.7569 17.9026 29.2147 18.3602L31.72 20.8656L38.8955 14.3536C39.3747 13.9188 40.1159 13.9546 40.5508 14.4339C40.9857 14.9129 40.9498 15.6541 40.4705 16.089ZM62.7178 54.4849C64.2625 52.9405 65.047 50.9921 64.9865 48.8504L64.4158 28.7039C64.3595 26.7145 62.3817 24.932 60.249 24.932C60.2285 24.932 60.2081 24.9321 60.1878 24.9324C59.1473 24.9491 55.7549 25.5096 55.7795 32.0212L55.8212 42.9649C55.8222 43.2151 55.8064 43.4581 55.7739 43.695C55.6913 43.5963 55.6028 43.4997 55.5085 43.4054C54.0621 41.9592 51.6934 41.9408 50.1158 43.3637C50.0765 43.399 50.0396 43.4369 50.0056 43.4772C48.2404 45.5643 46.0714 47.3924 44.3283 48.8612C43.7171 49.3764 43.1399 49.8629 42.6659 50.29C40.6782 52.0815 40.413 54.5499 40.4156 56.7282L40.425 64.522L39.4144 64.5134C38.7302 64.5071 38.0853 64.7691 37.5961 65.2499C37.1068 65.7308 36.8341 66.3721 36.8282 67.0555L36.802 70.1041C36.7961 70.7874 37.0577 71.4333 37.5387 71.9225C38.0194 72.4118 38.6607 72.6844 39.3441 72.6903L55.1814 72.8263C55.1888 72.8263 55.1963 72.8265 55.2038 72.8265C55.8788 72.8265 56.5159 72.5653 56.9997 72.0897C57.4889 71.6088 57.7616 70.9676 57.7674 70.2843L57.7936 67.2356C57.7995 66.5523 57.5379 65.9064 57.057 65.4172C56.5762 64.9279 55.9349 64.6553 55.2515 64.6494L53.9486 64.6383V63.2542L62.7178 54.4849ZM55.4499 67.2156L55.4237 70.2642C55.4231 70.3377 55.3869 70.3887 55.3566 70.4184C55.3264 70.4483 55.2792 70.4832 55.2013 70.4829L39.364 70.3468C39.2906 70.3462 39.2396 70.31 39.2099 70.2797C39.1802 70.2494 39.1449 70.198 39.1456 70.1244L39.1718 67.0758C39.1724 67.0023 39.2086 66.9513 39.2389 66.9216C39.2688 66.8921 39.3198 66.8571 39.392 66.8571H39.394H39.3942L55.2315 66.9932C55.351 66.9944 55.4511 67.096 55.4499 67.2156ZM42.7687 64.5424L42.7594 56.7255C42.7564 54.3386 43.184 52.9786 44.2352 52.0311C44.6801 51.6301 45.2169 51.1776 45.8386 50.6537C47.6304 49.1435 49.8562 47.2678 51.7372 45.0592C52.3951 44.5074 53.2932 44.5049 53.8512 45.0629C54.445 45.6566 54.4457 46.3629 53.8561 47.1624C52.9243 48.2098 51.9447 49.1586 50.908 50.1617C50.4104 50.6433 49.8956 51.1414 49.3765 51.6607C48.9189 52.1183 48.9189 52.8602 49.3766 53.3179C49.6054 53.5467 49.9052 53.6611 50.2052 53.6611C50.5052 53.6611 50.8052 53.5467 51.0338 53.3177C51.5393 52.8122 52.0469 52.3209 52.5379 51.8458C53.621 50.7977 54.6439 49.8078 55.646 48.6772C55.6513 48.6712 56.4309 47.7176 56.4309 47.7176C57.6044 46.273 58.1716 44.7154 58.165 42.9563L58.1232 32.0124C58.1122 29.1119 58.9178 27.297 60.2253 27.276C60.2333 27.2759 60.2411 27.2759 60.249 27.2759C61.1193 27.2759 62.0522 28.0368 62.0729 28.7704L62.6436 48.9169C62.6861 50.4192 62.1534 51.7351 61.0605 52.8277L51.948 61.9402C51.7283 62.1599 51.6048 62.458 51.6048 62.7687V64.6182L42.7687 64.5424ZM40.2992 68.2676C40.4924 67.7814 41.0433 67.544 41.5295 67.7373C42.0157 67.9305 42.2531 68.4815 42.0599 68.9677C41.8665 69.4538 41.3158 69.6913 40.8296 69.4979C40.3432 69.3046 40.1058 68.7538 40.2992 68.2676ZM27.404 65.2502C26.9147 64.7691 26.2684 64.5084 25.5855 64.5137L24.5751 64.5223L24.5845 56.7284C24.5871 54.5501 24.3218 52.0817 22.3342 50.2903C21.8604 49.863 21.283 49.3767 20.6719 48.8617C18.929 47.3927 16.7598 45.5646 14.9946 43.4775C14.9606 43.4372 14.9238 43.3992 14.8846 43.3639C13.3062 41.9411 10.9374 41.9596 9.49173 43.4057C9.39725 43.5 9.30892 43.5966 9.2263 43.6953C9.19363 43.4584 9.17796 43.2156 9.17898 42.9654L9.22073 32.0214C9.24534 25.5097 5.85291 24.9494 4.81243 24.9325C4.79192 24.9323 4.77186 24.9321 4.7512 24.9321C2.61854 24.9321 0.640557 26.7148 0.584454 28.7041L0.0137508 48.8507C-0.0467473 50.9924 0.737677 52.9407 2.28221 54.485L11.0515 63.2545V64.6386L9.74852 64.6497C9.06517 64.6556 8.42386 64.9282 7.9431 65.4175C7.46219 65.9067 7.20057 66.5526 7.20643 67.2359L7.23265 70.2845C7.23851 70.9679 7.51111 71.6091 8.00037 72.09C8.48421 72.5656 9.12112 72.8268 9.79627 72.8268C9.80374 72.8268 9.81136 72.8268 9.81868 72.8266L25.656 72.6906C26.3393 72.6847 26.9806 72.4121 27.4614 71.9228C27.9423 71.4336 28.2039 70.7877 28.1981 70.1044L28.1719 67.0557C28.1661 66.3724 27.8932 65.7311 27.404 65.2502ZM13.3952 62.7687C13.3952 62.4579 13.2718 62.1599 13.052 61.9402L3.93939 52.8276C2.84661 51.7349 2.31399 50.4192 2.35648 48.9169L2.92718 28.7703C2.94813 28.03 3.90394 27.2633 4.77479 27.276C6.0823 27.297 6.88782 29.1119 6.87684 32.0123L6.83509 42.9563C6.8285 44.7154 7.39568 46.2728 8.57122 47.7201L9.32356 48.6412C9.32869 48.6475 9.34891 48.6712 9.35418 48.6772C10.3563 49.8078 11.3792 50.7977 12.4623 51.8458C12.9533 52.321 13.4607 52.8122 13.9664 53.3177C14.1952 53.5465 14.495 53.6611 14.795 53.6611C15.0949 53.6611 15.3949 53.5467 15.6236 53.3179C16.0813 52.8602 16.0813 52.1183 15.6237 51.6607C15.1046 51.1415 14.5898 50.6433 14.0922 50.1617C13.0555 49.1584 12.0759 48.2098 11.1441 47.1624C10.5546 46.3631 10.5552 45.6567 11.1491 45.063C11.7073 44.5049 12.6051 44.5074 13.2631 45.0592C15.144 47.2679 17.3697 49.1436 19.1617 50.6539C19.7833 51.1779 20.3201 51.6302 20.7652 52.0314C21.8162 52.9786 22.2438 54.3387 22.2408 56.7257L22.2315 64.5425L13.3954 64.6184L13.3952 62.7687ZM25.79 70.2799C25.7603 70.3102 25.7093 70.3464 25.6359 70.347L9.79861 70.483C9.72376 70.4832 9.67352 70.4485 9.64334 70.4186C9.61302 70.3888 9.57684 70.338 9.57625 70.2643L9.55003 67.2157C9.5493 67.1422 9.5846 67.0906 9.61434 67.0604C9.64407 67.0303 9.69505 66.9939 9.76844 66.9933L25.6056 66.8573H25.6078C25.6802 66.8573 25.7311 66.8923 25.761 66.9217C25.7913 66.9514 25.8275 67.0024 25.8281 67.076L25.8543 70.1246C25.8551 70.1981 25.8198 70.2495 25.79 70.2799ZM24.7009 68.2676C24.8943 68.7538 24.6568 69.3046 24.1706 69.4979C23.6845 69.6913 23.1335 69.4538 22.9403 68.9677C22.747 68.4815 22.9844 67.9307 23.4706 67.7373C23.9568 67.544 24.5075 67.7814 24.7009 68.2676Z" fill="#166FD3"/>
</svg>
