<?xml version="1.0" encoding="UTF-8"?>
<svg id="Capa_1" xmlns="http://www.w3.org/2000/svg" version="1.1" viewBox="0 0 32 32">
  <!-- Generator: Adobe Illustrator 30.1.0, SVG Export Plug-In . SVG Version: 2.1.1 Build 136)  -->
  <defs>
    <style>
      .st0 {
        fill: #57ac20;
      }

      .st1 {
        fill: #021d8d;
      }
    </style>
  </defs>
  <g id="OuL0Zn">
    <g>
      <path class="st1" d="M14.11,26.83l-8.82-.03c-.74,0-1.45-.63-1.45-1.39v-9.04c-.01-.83.65-1.49,1.47-1.49l8.71-.02c.28-.97-.18-2.13,1.16-2.95.74-.45,1.7-.57,2.47,0l9.83,7.22c.58.42.93.97.98,1.57.05.69-.16,1.43-.77,1.88l-9.8,7.12c-.67.49-1.41.63-2.18.38-1.44-.46-1.66-1.63-1.6-3.23Z"/>
      <path class="st0" d="M27.96,17.06l-9.21-6.66c-1.16-.84-2.57-.86-3.95-.35-1.14.42-1.93,1.61-2.39,2.92l-7.8-.02c-.62-.16-.79-1.32-.74-1.83.07-.65.47-1.18,1.08-1.62L14.49,2.58c.7-.51,1.56-.59,2.33-.26,1.56.67,1.29,2.02,1.42,3.22l8.85.03c.85,0,1.37.83,1.37,1.62v8.75c-.01.41-.12.77-.5,1.11Z"/>
    </g>
  </g>
</svg>